<svg width="117" height="110" viewBox="0 0 117 110" fill="none" xmlns="http://www.w3.org/2000/svg">
<path d="M58.8089 1.06125L71.7587 40.6528C71.9604 41.2694 72.5356 41.6864 73.1844 41.6864H115.077C115.562 41.6864 115.763 42.3079 115.369 42.5919L81.4892 67.0442C80.9599 67.4262 80.7384 68.1065 80.9413 68.7268L93.8851 108.3C94.0356 108.76 93.5097 109.144 93.1172 108.861L59.2115 84.3898C58.6874 84.0116 57.9799 84.0116 57.4558 84.3898L23.5501 108.861C23.1576 109.144 22.6317 108.76 22.7822 108.3L35.726 68.7268C35.9289 68.1065 35.7074 67.4262 35.1781 67.0442L1.29803 42.5919C0.904625 42.3079 1.10548 41.6864 1.59064 41.6864H43.4829C44.1317 41.6864 44.7069 41.2694 44.9086 40.6528L57.8584 1.06125C58.0087 0.601836 58.6586 0.601838 58.8089 1.06125Z" fill="white" stroke="#444444"/>
</svg>
